Lucy and Edmund Pevensie return to Narnia with their cousin Eustace where they meet up with Prince Caspian for a trip across the sea aboard the royal ship The Dawn Treader. Along the way they encounter dragons, dwarves, merfolk, and a band of lost warriors before reaching the edge of the world. 


Director: Michael Apted
Writers: Christopher Markus (screenplay), Stephen McFeely (screenplay), and 2 more credits » 
Stars:Ben Barnes, Skandar Keynes and Georgie Henley

Media info 


General
Complete name                    : D:\utorrent\torrentcompleet\The.Chronicles.of.Narnia：The.Voyage.of.the.Dawn.Treader.2010..BluRayrip.mkv.1080p.AVC.DTS 5.1.ACB-Team\The.Chronicles.of.Narnia：The.Voyage.of.the.Dawn.Treader.2010..BluRayrip.mkv.1080p.AVC.DTS 5.1.ACB-Team..mkv
Format                           : Matroska
File size                        : 8.25 GiB
Duration                         : 1h 52mn
Overall bit rate                 : 10.5 Mbps
Movie name                       : movie
Encoded date                     : UTC 2011-03-22 16:56:31
Writing application              : mkvmerge v3.2.0 ('Beginnings') built on Feb 12 2010 16:46:17
Writing library                  : libebml v0.7.9 + libmatroska v0.8.1

Video
ID                               : 1
Format                           : AVC
Format/Info                      : Advanced Video Codec
Format profile                   : Main@L4.1
Format settings, CABAC           : Yes
Format settings, ReFrames        : 2 frames
Format settings, GOP             : M=4, N=16
Muxing mode                      : Container profile=Unknown@0.0
Codec ID                         : V_MPEG4/ISO/AVC
Duration                         : 1h 52mn
Bit rate mode                    : Variable
Bit rate                         : 8 767 Kbps
Maximum bit rate                 : 35.0 Mbps
Width                            : 1 920 pixels
Height                           : 1 080 pixels
Display aspect ratio             : 16:9
Frame rate                       : 23.976 fps
Color space                      : YUV
Chroma subsampling               : 4:2:0
Bit depth                        : 8 bits
Scan type                        : Progressive
Bits/(Pixel*Frame)               : 0.176
Stream size                      : 6.90 GiB (84%)
Writing library                  : x264 core 114 r1900 60ef1f8
Encoding settings                : cabac=1 / ref=1 / deblock=0:0:0 / analyse=0:0 / me=dia / subme=0 / psy=1 / psy_rd=0.00:0.00 / mixed_ref=0 / me_range=16 / chroma_me=1 / trellis=0 / 8x8dct=0 / cqm=0 / deadzone=21,11 / fast_pskip=1 / chroma_qp_offset=0 / threads=3 / sliced_threads=0 / slices=4 / nr=0 / decimate=1 / interlaced=0 / constrained_intra=0 / bframes=3 / b_pyramid=0 / b_adapt=0 / b_bias=0 / direct=1 / weightb=0 / open_gop=0 / weightp=0 / keyint=24 / keyint_min=1 / scenecut=0 / intra_refresh=0 / rc_lookahead=0 / rc=crf / mbtree=0 / crf=22.0 / qcomp=0.60 / qpmin=0 / qpmax=69 / qpstep=4 / vbv_maxrate=35000 / vbv_bufsize=30000 / crf_max=0.0 / nal_hrd=vbr / ip_ratio=1.10 / pb_ratio=1.10 / aq=0

Audio
ID                               : 2
Format                           : DTS
Format/Info                      : Digital Theater Systems
Codec ID                         : A_DTS
Duration                         : 1h 52mn
Bit rate mode                    : Constant
Bit rate                         : 1 510 Kbps
Channel(s)                       : 6 channels
Channel positions                : Front: L C R, Side: L R, LFE
Sampling rate                    : 48.0 KHz
Bit depth                        : 24 bits
Stream size                      : 1.19 GiB (14%)
Language                         : English

Text #1
ID                               : 3
Format                           : VobSub
Muxing mode                      : zlib
Codec ID                         : S_VOBSUB
Codec ID/Info                    : The same subtitle format used on DVDs
Language                         : English

Text #2
ID                               : 4
Format                           : VobSub
Muxing mode                      : zlib
Codec ID                         : S_VOBSUB
Codec ID/Info                    : The same subtitle format used on DVDs
Language                         : Spanish

Text #3
ID                               : 5
Format                           : VobSub
Muxing mode                      : zlib
Codec ID                         : S_VOBSUB
Codec ID/Info                    : The same subtitle format used on DVDs
Title                            : Forced
Language                         : Spanish

Text #4
ID                               : 6
Format                           : VobSub
Muxing mode                      : zlib
Codec ID                         : S_VOBSUB
Codec ID/Info                    : The same subtitle format used on DVDs
Language                         : French

Text #5
ID                               : 7
Format                           : VobSub
Muxing mode                      : zlib
Codec ID                         : S_VOBSUB
Codec ID/Info                    : The same subtitle format used on DVDs
Title                            : Forced
Language                         : French

Text #6
ID                               : 8
Format                           : VobSub
Muxing mode                      : zlib
Codec ID                         : S_VOBSUB
Codec ID/Info                    : The same subtitle format used on DVDs
Language                         : Portuguese

Text #7
ID                               : 9
Format                           : VobSub
Muxing mode                      : zlib
Codec ID                         : S_VOBSUB
Codec ID/Info                    : The same subtitle format used on DVDs
Title                            : Forced
Language                         : Portuguese

Text #8
ID                               : 10
Format                           : VobSub
Muxing mode                      : zlib
Codec ID                         : S_VOBSUB
Codec ID/Info                    : The same subtitle format used on DVDs
Language                         : Italian

Text #9
ID                               : 11
Format                           : VobSub
Muxing mode                      : zlib
Codec ID                         : S_VOBSUB
Codec ID/Info                    : The same subtitle format used on DVDs
Title                            : Forced
Language                         : Italian

Text #10
ID                               : 12
Format                           : VobSub
Muxing mode                      : zlib
Codec ID                         : S_VOBSUB
Codec ID/Info                    : The same subtitle format used on DVDs
Language                         : Russian

Text #11
ID                               : 13
Format                           : VobSub
Muxing mode                      : zlib
Codec ID                         : S_VOBSUB
Codec ID/Info                    : The same subtitle format used on DVDs
Title                            : Forced
Language                         : Russian

Text #12
ID                               : 14
Format                           : UTF-8
Codec ID                         : S_TEXT/UTF8
Codec ID/Info                    : UTF-8 Plain Text
Language                         : Dutch

Menu
00:00:00.000                     : en:00:00:00.000
00:04:28.477                     : en:00:04:28.477
00:07:37.040                     : en:00:07:37.040
00:11:58.259                     : en:00:11:58.259
00:15:22.463                     : en:00:15:22.463
00:20:06.288                     : en:00:20:06.288
00:27:14.508                     : en:00:27:14.508
00:32:20.689                     : en:00:32:20.689
00:36:46.371                     : en:00:36:46.371
00:39:51.598                     : en:00:39:51.598
00:41:56.389                     : en:00:41:56.389
00:45:21.928                     : en:00:45:21.928
00:47:51.494                     : en:00:47:51.494
00:52:52.544                     : en:00:52:52.544
00:58:04.940                     : en:00:58:04.940
01:01:51.333                     : en:01:01:51.333
01:05:43.731                     : en:01:05:43.731
01:08:20.805                     : en:01:08:20.805
01:10:49.912                     : en:01:10:49.912
01:16:55.027                     : en:01:16:55.027
01:20:23.569                     : en:01:20:23.569
01:23:48.315                     : en:01:23:48.315
01:28:23.507                     : en:01:28:23.507
01:32:30.462                     : en:01:32:30.462
01:35:58.753                     : en:01:35:58.753
01:38:07.465                     : en:01:38:07.465
01:40:55.549                     : en:01:40:55.549
01:45:06.967                     : en:01:45:06.967

